<?xml version="1.0" encoding="utf-8"?>
<!-- Generator: Adobe Illustrator 24.1.0, SVG Export Plug-In . SVG Version: 6.00 Build 0)  -->
<svg version="1.1" id="Layer_1" xmlns="http://www.w3.org/2000/svg" xmlns:xlink="http://www.w3.org/1999/xlink" x="0px" y="0px"
	 viewBox="0 0 772.1 189.4" style="enable-background:new 0 0 772.1 189.4;" xml:space="preserve">
<style type="text/css">
	.st0{fill:#398AC7;}
	.st1{fill:#232B77;}
</style>
<g>
	<g>
		<path class="st0" d="M449.4,126.4c-3.1,35.1-33.8,61.4-69.1,58.8c-4.2-0.3-8.2-1-12.1-2.1c6.5,3.4,13.9,5.5,21.7,6.1
			c30.8,2.2,57.6-21,59.8-51.8C449.9,133.7,449.8,130,449.4,126.4z"/>
	</g>
	<g>
		<g>
			<path class="st1" d="M20,154.2c1.7-0.7,2.9-1.7,3.6-3c0.7-1.3,1.1-2.6,1.1-4.1V81.3c-2,0-4.1,0-6.3,0.1c-2.2,0.1-4.4,0.3-6.7,0.8
				c-2.2,0.4-4.3,1-6.3,1.8c-2,0.8-3.8,1.8-5.3,3.2l3.2-16h57.5l3.2,16c-1.6-1.4-3.3-2.4-5.3-3.2c-2-0.8-4.1-1.4-6.3-1.8
				c-2.2-0.4-4.5-0.7-6.7-0.8c-2.3-0.1-4.4-0.1-6.4-0.1v65.8c0,1.5,0.4,2.8,1.2,4.1c0.8,1.3,2,2.3,3.7,3H20z"/>
			<path class="st1" d="M89,78.3c0-1.5-0.4-2.8-1.1-4.2c-0.7-1.3-1.9-2.3-3.6-2.9h23.8c-1.7,0.6-3,1.6-3.7,2.9
				c-0.7,1.3-1.1,2.7-1.1,4.2v32.4h29.5V78.3c0-1.5-0.4-2.8-1.2-4.2c-0.8-1.3-2-2.3-3.7-2.9h23.8c-1.7,0.6-2.9,1.6-3.6,2.9
				c-0.7,1.3-1.1,2.7-1.1,4.2v68.8c0,1.5,0.4,2.8,1.1,4.1c0.7,1.3,1.9,2.3,3.6,3h-23.8c1.7-0.7,2.9-1.7,3.7-3
				c0.8-1.3,1.2-2.6,1.2-4.1v-27.5h-29.5v27.5c0,1.5,0.4,2.8,1.1,4.1c0.7,1.3,2,2.3,3.7,3H84.3c1.7-0.7,2.9-1.7,3.6-3
				c0.7-1.3,1.1-2.6,1.1-4.1V78.3z"/>
			<path class="st1" d="M241.4,147.1c0.3,1.5,1,2.9,2.1,4.2c1.1,1.3,2.5,2.3,4.4,2.9H224c1.6-0.6,2.5-1.6,2.9-2.9
				c0.4-1.3,0.4-2.7,0.1-4.2l-3.7-14.2h-27.2l-3.7,14.2c-0.3,1.5-0.3,2.9,0.1,4.2c0.4,1.3,1.4,2.3,2.9,2.9h-23.8
				c1.9-0.6,3.4-1.6,4.4-2.9c1.1-1.3,1.7-2.7,2.1-4.2l17.2-68.8c0.3-1.5,0.3-2.8-0.1-4.2c-0.4-1.3-1.4-2.3-2.9-2.9h34.8
				c-1.6,0.6-2.5,1.6-2.9,2.9c-0.4,1.3-0.4,2.7-0.1,4.2L241.4,147.1z M221.2,124l-10.7-42.7H209L198.4,124H221.2z"/>
			<path class="st1" d="M272.5,78.3c0-1.5-0.4-2.8-1.1-4.2c-0.7-1.3-1.9-2.3-3.6-2.9h23.7c-1.7,0.6-2.9,1.6-3.6,2.9
				c-0.7,1.3-1.1,2.7-1.1,4.2v68.8c0,1.5,0.4,2.8,1.1,4.1c0.7,1.3,1.9,2.3,3.6,3h-23.7c1.7-0.7,2.9-1.7,3.6-3
				c0.7-1.3,1.1-2.6,1.1-4.1V78.3z"/>
		</g>
	</g>
	<g>
		<path class="st1" d="M479.5,78.3c0-1.5-0.4-2.8-1.1-4.2c-0.7-1.3-1.9-2.3-3.6-2.9h23.8c-1.7,0.6-3,1.6-3.7,2.9
			c-0.7,1.3-1.1,2.7-1.1,4.2v32.4h29.5V78.3c0-1.5-0.4-2.8-1.2-4.2c-0.8-1.3-2-2.3-3.7-2.9h23.8c-1.7,0.6-2.9,1.6-3.6,2.9
			c-0.7,1.3-1.1,2.7-1.1,4.2v68.8c0,1.5,0.4,2.8,1.1,4.1c0.7,1.3,1.9,2.3,3.6,3h-23.8c1.7-0.7,2.9-1.7,3.7-3
			c0.8-1.3,1.2-2.6,1.2-4.1v-27.5h-29.5v27.5c0,1.5,0.4,2.8,1.1,4.1c0.7,1.3,2,2.3,3.7,3h-23.8c1.7-0.7,2.9-1.7,3.6-3
			c0.7-1.3,1.1-2.6,1.1-4.1V78.3z"/>
		<path class="st1" d="M631.9,147.1c0.3,1.5,1,2.9,2.1,4.2c1.1,1.3,2.5,2.3,4.4,2.9h-23.8c1.6-0.6,2.5-1.6,2.9-2.9
			c0.4-1.3,0.4-2.7,0.1-4.2l-3.7-14.2h-27.2l-3.7,14.2c-0.3,1.5-0.3,2.9,0.1,4.2c0.4,1.3,1.4,2.3,2.9,2.9h-23.8
			c1.9-0.6,3.4-1.6,4.4-2.9c1.1-1.3,1.7-2.7,2.1-4.2l17.2-68.8c0.3-1.5,0.3-2.8-0.1-4.2c-0.4-1.3-1.4-2.3-2.9-2.9h34.8
			c-1.6,0.6-2.5,1.6-2.9,2.9c-0.4,1.3-0.4,2.7-0.1,4.2L631.9,147.1z M611.7,124l-10.7-42.7h-1.5L588.9,124H611.7z"/>
		<path class="st1" d="M663,78.3c0-1.5-0.4-2.8-1.1-4.2c-0.7-1.3-1.9-2.3-3.6-2.9H682c-1.7,0.6-2.9,1.6-3.6,2.9
			c-0.7,1.3-1.1,2.7-1.1,4.2v68.8c0,1.5,0.4,2.8,1.1,4.1c0.7,1.3,1.9,2.3,3.6,3h-23.7c1.7-0.7,2.9-1.7,3.6-3
			c0.7-1.3,1.1-2.6,1.1-4.1V78.3z"/>
		<path class="st1" d="M753.2,78.3c0-1.5-0.4-2.8-1.2-4.2c-0.8-1.3-2-2.3-3.7-2.9h23.8c-1.7,0.6-2.9,1.6-3.6,2.9
			c-0.7,1.3-1.1,2.7-1.1,4.2v68.8c0,1.5,0.4,2.8,1.1,4.1c0.7,1.3,1.9,2.3,3.6,3h-23.8c1.7-0.7,2.9-1.7,3.7-3
			c0.8-1.3,1.2-2.6,1.2-4.1c0-5.3-1-9.9-2.9-13.7c-2-3.9-4.4-7.3-7.4-10.4c-3-3.1-6.2-5.9-9.8-8.5c-3.6-2.6-7-5.3-10.2-8.1v40.8
			c0,1.5,0.4,2.8,1.1,4.1c0.7,1.3,2,2.3,3.7,3h-23.8c1.7-0.7,2.9-1.7,3.6-3c0.7-1.3,1.1-2.6,1.1-4.1V78.3c0-1.5-0.4-2.8-1.1-4.2
			c-0.7-1.3-1.9-2.3-3.6-2.9h23.8c-1.7,0.6-3,1.6-3.7,2.9c-0.8,1.3-1.1,2.7-1.1,4.2c0,4.3,0.8,7.9,2.5,10.9c1.7,3,4.3,6,7.9,9
			c3.2,2.8,6.6,5.5,10,8.1c3.5,2.6,6.8,5.4,9.9,8.4V78.3z"/>
	</g>
	<g>
		<path class="st0" d="M430.5,147.5c-3,4.4-6.6,8.3-10.9,11.7c-4.3,3.4-9.1,6-14.5,7.8c-5.4,1.8-11.2,2.7-17.5,2.7
			c-7.9,0-15.3-1.5-22.1-4.6c-6.8-3.1-12.6-7.4-17.4-12.9c-4.8-5.5-8.6-12-11.3-19.5c-2.7-7.4-4.1-15.4-4.1-23.8
			c0-7.9,1.4-15.5,4.2-22.7c2.8-7.2,6.7-13.5,11.7-19c5-5.5,10.9-9.8,17.7-13.2c6.9-3.3,14.3-5,22.5-5c5.5,0,10.8,0.7,16.1,2
			c5.3,1.3,10,3.2,14.1,5.7c4.1,2.5,7.5,5.5,10,9.2c2.6,3.6,3.8,7.9,3.8,12.7c0,3.5-1.3,6.5-3.8,9.1c-2.6,2.6-5.6,3.8-9.1,3.8
			c-2.8,0-5.3-0.8-7.6-2.5c-2.2-1.7-3.7-3.7-4.3-6.2c0.8-2.3,1.2-5.1,1.2-8.4c0-6.1-1.6-11.2-4.8-15.3c-3.2-4.1-8.3-6.1-15.3-6.1
			c-5.1,0-9.8,1.3-14.1,4c-4.3,2.6-8,6.2-11.2,10.7c-3.1,4.5-5.6,9.7-7.4,15.6c-1.8,6-2.7,12.3-2.7,19.1c0,7.4,1,14.3,3,20.5
			c2,6.2,4.8,11.5,8.4,15.9c3.6,4.4,8.1,7.8,13.3,10.2c5.2,2.4,11,3.6,17.5,3.6c10.3,0,18.4-1.7,24.3-5.1c6-3.4,10.9-8.4,14.9-15
			l2,1C435.7,138.5,433.5,143.1,430.5,147.5z"/>
	</g>
	<g>
		<path class="st0" d="M446.9,15.5C442.9,5,433.4,0.2,432.4,0c7.4,9-1.3,21.5-17.8,18c-2.5-0.5-4.9-0.9-7.3-1.2
			c-0.7,0.3-1.4,0.6-2.1,1c-5.4,2.9-8.9,9-8.9,9c-0.7-4.8,1.4-8.2,3.8-10.4c-4.1,0-8,0.3-11.8,1c-5.8,1-11.3,2.9-16.4,5.3
			c-0.9,0.8-1.8,1.6-2.5,2.6c-3.8,4.8-4.1,10.3-4.1,10.3c-1.9-3.3-1.6-6.4-0.5-9c-4.7,2.9-9,6.3-12.9,10.1
			c-23,22.4-28,47.6-24.4,69.8c0-1.2-0.1-2.5-0.1-3.8c0.2-15.2,8.8-35.6,19.9-47.7c2-2.1,4-4.2,6.2-6.1c2.2-1.9,4.5-3.6,6.9-5.2
			c9.7-6.4,20.9-10.1,32.3-11.4c5.7-0.6,11.4-0.8,17.1-0.4c1.4,0,2.8,0.2,4.2,0.4c1.4,0.1,2.8,0.3,4.2,0.5l4.2,0.6
			c1.3,0.2,2.7,0.4,4,0.4c2.7,0.1,5.4-0.4,7.8-1.5c2.4-1.1,4.5-3,5.7-5.4c1.3-2.4,1.6-5.2,1.4-8c-0.2-2.8-1-5.5-2.1-8.1
			c1.2,2.5,2.2,5.2,2.6,8c0.4,2.8,0.2,5.8-1,8.5c-1.2,2.7-3.3,4.9-5.9,6.3c-2.6,1.4-5.5,2-8.5,2.2c-1.5,0.1-2.9,0-4.4-0.2l-4.2-0.5
			c-1.4-0.2-2.8-0.3-4.2-0.3c-1.4-0.1-2.8-0.2-4.2-0.2c-5.5-0.2-11.1,0.2-16.5,1c-9.5,1.4-18.7,4.6-26.8,9.5
			c9.7-3.7,20.7-5.2,32.8-3.9c10.2,1.1,16.6,2.1,23.8,6.8c2.8,2.1,11.1,9,12.6,16.9c0,0,11.1-13.1,2.1-22.2
			C449.6,36.8,450.1,23.9,446.9,15.5z"/>
	</g>
</g>
</svg>
